#define bluetooth_width 16
#define bluetooth_height 16
static char bluetooth_bits[] = {
  0x00, 0x00, 0x80, 0x01, 0x80, 0x03, 0x80, 0x06, 0x90, 0x0C, 0xB0, 0x0C, 
  0xE0, 0x06, 0xC0, 0x03, 0x80, 0x01, 0xC0, 0x03, 0xE0, 0x06, 0xB0, 0x0C, 
  0x90, 0x0C, 0x80, 0x06, 0x80, 0x03, 0x80, 0x01, };
