#define check_width 16
#define check_height 16
static char check_bits[] = {
  0x00, 0x00, 0x00, 0x00, 0x00, 0x00, 0x00, 0x00, 0x00, 0xE0, 0x00, 0xF0, 
  0x00, 0xF8, 0x0E, 0x7C, 0x1E, 0x3E, 0x3E, 0x1F, 0xF8, 0x0F, 0xF0, 0x07, 
  0xE0, 0x03, 0xC0, 0x01, 0x00, 0x00, 0x00, 0x00, };
