#define no_con_width 16
#define no_con_height 16
static char no_con_bits[] = {
  0x00, 0x00, 0xC0, 0x07, 0xF0, 0x1F, 0xF8, 0x3F, 0x7C, 0x7C, 0x1C, 0x7E, 
  0x0E, 0xFF, 0x8E, 0xEF, 0xCE, 0xE3, 0xEE, 0xE1, 0xFC, 0x70, 0x7C, 0x78, 
  0xF8, 0x3F, 0xF0, 0x1F, 0xC0, 0x07, 0x00, 0x00, };
