#define signal_2_width 16
#define signal_2_height 16
static char signal_2_bits[] = {
  0x00, 0x00, 0x00, 0x00, 0x00, 0x00, 0x00, 0x00, 0x00, 0x00, 0x00, 0x00, 
  0x00, 0x00, 0x00, 0x00, 0x00, 0x00, 0x20, 0x00, 0x30, 0x00, 0x38, 0x00, 
  0x38, 0x00, 0x3A, 0x00, 0x3B, 0x00, 0x3B, 0x00, };
