#define signal_4_width 16
#define signal_4_height 16
static char signal_4_bits[] = {
  0x00, 0x00, 0x00, 0x20, 0x00, 0x30, 0x00, 0x38, 0x00, 0x38, 0x00, 0x3A, 
  0x00, 0x3B, 0x80, 0x3B, 0x80, 0x3B, 0xA0, 0x3B, 0xB0, 0x3B, 0xB8, 0x3B, 
  0xB8, 0x3B, 0xBA, 0x3B, 0xBB, 0x3B, 0xBB, 0x3B, };
