#define signal_3_width 16
#define signal_3_height 16
static char signal_3_bits[] = {
  0x00, 0x00, 0x00, 0x00, 0x00, 0x00, 0x00, 0x00, 0x00, 0x00, 0x00, 0x02, 
  0x00, 0x03, 0x80, 0x03, 0x80, 0x03, 0xA0, 0x03, 0xB0, 0x03, 0xB8, 0x03, 
  0xB8, 0x03, 0xBA, 0x03, 0xBB, 0x03, 0xBB, 0x03, };
