#define talk_width 16
#define talk_height 16
static char talk_bits[] = {
  0xFC, 0x3F, 0xFE, 0x7F, 0xFF, 0xFF, 0x0F, 0xF0, 0x07, 0xE0, 0x07, 0xE0, 
  0x07, 0xE0, 0x07, 0xE0, 0x07, 0xE0, 0x07, 0xE0, 0x0F, 0xF0, 0x8F, 0x7F, 
  0xDE, 0x3F, 0xFC, 0x1F, 0x78, 0x00, 0x30, 0x00, };
