#define temperature_width 16
#define temperature_height 16
static char temperature_bits[] = {
  0x80, 0x03, 0xC0, 0x07, 0xE0, 0x04, 0xE0, 0x07, 0xE0, 0x04, 0xE0, 0x07, 
  0xE0, 0x04, 0xE0, 0x07, 0xE0, 0x04, 0xF0, 0x0F, 0xF8, 0x1F, 0xF8, 0x1F, 
  0xF8, 0x1F, 0xF8, 0x1F, 0xF0, 0x0F, 0xE0, 0x07, };
