#define warning_width 16
#define warning_height 16
static char warning_bits[] = {
  0x00, 0x01, 0x80, 0x03, 0x80, 0x03, 0xC0, 0x07, 0xC0, 0x06, 0xE0, 0x0E, 
  0x60, 0x0C, 0x70, 0x1D, 0x30, 0x19, 0x38, 0x39, 0x18, 0x31, 0x1C, 0x70, 
  0x0C, 0x61, 0xFE, 0xFF, 0xFE, 0xFF, 0x00, 0x00, };
