#define wifi1_width 16
#define wifi1_height 16
static char wifi1_bits[] = {
  0x00, 0x00, 0xE0, 0x07, 0xF8, 0x1F, 0xFC, 0x3F, 0x0E, 0x70, 0xE6, 0x67, 
  0xF0, 0x0F, 0x18, 0x18, 0xC0, 0x03, 0xE0, 0x07, 0x20, 0x04, 0x80, 0x01, 
  0x80, 0x01, 0x00, 0x00, 0x00, 0x00, 0x00, 0x00, };
